# xmcd
#
# Track frame offsets:
#	150
#	18197
#	29637
#	40280
#	49660
#	60850
#	71652
#	83332
#	95517
#	108275
#	120042
#	131900
#	142392
#	151945
#	162825
#	173857
#	187910
#	199330
#
# Disc length: 2805 seconds
#
# Revision: 1
# Processed by: cddbd v1.5.2PL0 Copyright (c) Steve Scherf et al.
# Submitted via: audiograbber 1.83.01
#
DISCID=ea0af312
DTITLE=Brook Benton - Portrait of a song stylist
DYEAR=1989
DGENRE=Rhythm and Blues
TTITLE0=Rainy night in Georgia
TTITLE1=The same one
TTITLE2=Revenge
TTITLE3=Shadrack
TTITLE4=It's just a matter of time
TTITLE5=Thank you pretty baby
TTITLE6=Kiddio
TTITLE7=The Boll Weevil song
TTITLE8=I got what I wanted
TTITLE9=Hotel Happiness
TTITLE10=Think twice
TTITLE11=Lie to me
TTITLE12=So close
TTITLE13=Frankie and Johnny
TTITLE14=The ties that bind
TTITLE15=For my baby
TTITLE16=My true confession
TTITLE17=So many ways
EXTD=Masterpiece Music Production\nCompilation 1989
EXTT0=
EXTT1=
EXTT2=
EXTT3=
EXTT4=
EXTT5=
EXTT6=
EXTT7=
EXTT8=
EXTT9=
EXTT10=
EXTT11=
EXTT12=
EXTT13=
EXTT14=
EXTT15=
EXTT16=
EXTT17=
PLAYORDER=
